<?xml version="1.0" encoding="utf-8"?>
<!-- Generator: Adobe Illustrator 19.0.0, SVG Export Plug-In . SVG Version: 6.00 Build 0)  -->
<svg version="1.1" id="Layer_1" xmlns="http://www.w3.org/2000/svg" xmlns:xlink="http://www.w3.org/1999/xlink" x="0px" y="0px"
	 viewBox="0 0 706 120" style="enable-background:new 0 0 706 120;" xml:space="preserve">
<style type="text/css">
	.st0{fill:none;}
</style>
<g id="XMLID_55_">
	<path id="XMLID_4_" d="M686.1,74.9L686.1,74.9c-1.1,0-2.2-0.9-2.4-2.1l-3-23.6c-0.1-1.2,0.7-2.1,1.8-2.1l0,0c1.1,0,2.2,0.9,2.4,2.1
		l3,23.6C688.1,74,687.3,74.9,686.1,74.9z"/>
	<path id="XMLID_3_" d="M691.9,74.9L691.9,74.9c-1.1,0-2.2-0.9-2.4-2.1l-3-23.6c-0.1-1.2,0.7-2.1,1.8-2.1l0,0c1.1,0,2.2,0.9,2.4,2.1
		l3,23.6C693.9,74,693.1,74.9,691.9,74.9z"/>
	<path id="XMLID_2_" d="M696.6,70.2L696.6,70.2c-0.8,0-1.5-0.6-1.6-1.4l-2-15.7c-0.1-0.8,0.4-1.4,1.2-1.4l0,0c0.8,0,1.5,0.6,1.6,1.4
		l2,15.7C698,69.6,697.4,70.2,696.6,70.2z"/>
	<g id="XMLID_247_">
		<path id="XMLID_258_" class="st0" d="M196.7,61.6c-1.8-1.6-3.9-2.8-6.4-3.6c-2.5-0.8-6-1.2-10.5-1.2c-4.2,0-7.7,0.4-10.5,1.3
			c-2.8,0.8-5.1,2-6.8,3.5c-1.8,1.6-3.1,3.4-3.8,5.4c-0.7,2-1.2,4.3-1.2,6.9c-0.1,2.4,0.2,4.6,0.7,6.6c0.6,2,1.7,3.8,3.3,5.4
			c1.6,1.5,3.8,2.8,6.6,3.7c2.8,0.9,6.4,1.4,10.7,1.4c4.3,0,7.8-0.4,10.5-1.3c2.7-0.9,4.9-2,6.5-3.4c1.7-1.4,2.9-3.2,3.7-5.4
			c0.8-2.2,1.3-4.5,1.3-7.2c0.1-2.2-0.3-4.4-0.9-6.6C199.3,64.8,198.2,63,196.7,61.6z"/>
		<path id="XMLID_259_" class="st0" d="M365.4,53.1c-6.9,0-12.1,1.9-15.7,5.6c-3.6,3.7-6.1,8.9-6.3,15.6c-0.2,7,1.6,11.9,4.3,15
			c2.7,3.1,7.1,4.7,13.3,4.7c2.5,0,5.1-0.4,7.7-1.1c2.6-0.8,5-1.8,7.1-3.1l1-34.7c-1.4-0.6-3.2-1-5.5-1.4
			C369,53.2,367,53.1,365.4,53.1z"/>
		<path id="XMLID_260_" class="st0" d="M624,61.2c-1.1,11,3.3,17.3,10.6,19.9C625.1,76.3,624,61.2,624,61.2z"/>
		<path id="XMLID_263_" d="M682.6,72.8l-3-23.6c-0.1-0.5-0.5-0.9-1.1-1.3c0.1-10.4,0.2-19.6,0.2-24.3c0-7.3-2.1-13.1-6.7-13.1l-5,0
			l-4.2,0c6.5,0.5,11.5,6,11.3,12.6l-0.4,25.7c-9.7,0-13.4-12.8-29.8-12.8h-1.2c-3.8,0-8.2,0.6-10.7,1.8c-2.5,1.2-4.7,2.8-6.5,4.8
			c-1.9,2.2-3.5,4.8-4.7,7.8c-1.2,3-1.9,7.5-2,10.9c-0.1,3.1,0.2,7.3,1.1,10.1c0.8,2.8,2,5.2,3.6,7.3c1.7,2.4,3.9,4.3,6.6,5.7
			c2.7,1.4,7.2,2.1,11.2,2.1h1.6c17.9,0,20.3-12.8,29.4-12.8l-0.3,23.8c-0.2,7-5.4,12.8-12,14.1h6.2l4.3,0c4.2,0,7.5-6.2,7.6-13.9v0
			c0-5.1,0.1-14.7,0.2-25.4l0.1,0.6c0.1,1.2,1.2,2.1,2.4,2.1S682.8,74,682.6,72.8z M624,61.2c0,0,1.1,15.1,10.6,19.9
			C627.3,78.6,622.9,72.2,624,61.2z"/>
		<path id="XMLID_264_" d="M70.4,39c-1.5-0.5-3.1-0.8-4.6-1.2c-4.3-0.9-8.7-1.4-13.1-1.4c-5.8,0-11.4,0.7-16.7,2.1
			c-5.4,1.4-8.8,3.6-12.8,6.5c-4.2,3.1-7.5,7-10.1,11.7c-2.5,4.7-3.9,10.5-4.1,17.3c-0.2,6.3,0.8,11.8,2.8,16.4
			c2.1,4.6,5,8.5,8.9,11.6c3.9,3.1,7.3,5.3,12.7,6.8c5.4,1.5,11.4,2.2,17.9,2.2c3.4,0,6.2-0.2,8.3-0.5c2.1-0.3,4.4-0.8,6.8-1.4
			c1.9-0.5,3.9-1,5.7-1.8l0.1,0c3-1.1,5-3.9,5-7.1L77.5,89c0-1.3-1-2.3-2.3-2.3c-0.5,0-1.1,0.2-1.5,0.5c-0.7,0.6-1.6,1.3-2.5,2
			c-1.2,0.9-2.6,1.9-4.3,2.7c-1.7,0.9-3.8,1.6-6.1,2.3c-2.4,0.6-5.1,0.9-8.2,0.9c-6.1,0-12.2-1.7-15.8-5.2
			c-3.6-3.5-5.3-8.8-5.1-15.9c0.2-6.6,2.1-11.9,5.6-15.8c3.6-3.9,9.8-5.9,16.1-5.9c2.8,0,5.3,0.3,7.5,0.9c2.2,0.6,4.2,1.4,6,2.2
			c1.7,0.8,3.2,1.8,4.6,2.8c1.1,0.8,2.1,1.5,2.9,2.2c0.4,0.3,0.9,0.5,1.5,0.5h0.1c1.2,0,2.2-1,2.3-2.2l0.2-8.3
			C78.7,45.3,75.4,40.5,70.4,39z"/>
		<path id="XMLID_265_" d="M131.7,38.6c-15.6,1.8-23.6,9.2-24.6,10l0.3-10.1H96c-6,0-10.9,4.8-11.1,10.8l-1.8,62.3h22.1l1.4-49.7
			c2.7-0.9,8.1-1.7,10.9-2.4c2.9-0.7,5.6-1,8.2-1c2.2,0,4.1,0.1,5.9,0.2c1.8,0.1,3.1,0.4,4.1,0.7h2l0.4-14.7
			C138.4,41,135.3,38.2,131.7,38.6z"/>
		<path id="XMLID_268_" d="M180.2,36.3c-12.9,0-23.1,3.3-30.4,10c-7.4,6.7-11.2,15.9-11.5,27.6c-0.3,11.6,3,20.8,10,27.5
			c7,6.7,16.9,10,29.9,10c13,0,23.2-3.3,30.5-10c7.3-6.7,11.1-15.9,11.5-27.5c0.3-11.7-3-20.9-9.9-27.6
			C203.2,39.6,193.2,36.3,180.2,36.3z M199.6,80.8c-0.8,2.2-2.1,4-3.7,5.4c-1.6,1.4-3.8,2.5-6.5,3.4c-2.7,0.9-6.2,1.3-10.5,1.3
			c-4.3,0-7.9-0.5-10.7-1.4c-2.8-0.9-5-2.2-6.6-3.7c-1.7-1.6-2.8-3.4-3.3-5.4c-0.6-2-0.8-4.1-0.7-6.6c0.1-2.6,0.5-4.9,1.2-6.9
			c0.7-2,2-3.8,3.8-5.4c1.7-1.5,4-2.7,6.8-3.5c2.8-0.8,6.3-1.3,10.5-1.3c4.5,0,8,0.4,10.5,1.2c2.5,0.8,4.7,2,6.4,3.6
			c1.5,1.3,2.6,3.1,3.2,5.4c0.7,2.2,1,4.4,0.9,6.6C200.9,76.2,200.4,78.6,199.6,80.8z"/>
		<path id="XMLID_271_" d="M464,73.3c-0.6-0.8-1.3-1.4-2.1-1.7c-0.9-0.3-2.1-0.5-3.7-0.5h-24.8c-5.6,0-10-0.8-13.4-2.5
			c-3.4-1.7-6.1-3.9-8.2-6.7c-2.1-2.8-3.8-6-4.9-9.5c-1.1-3.6-1.6-7.4-1.5-11.6c0.1-4.1,0.9-7.9,2.2-11.5c1.4-3.6,3.2-6.8,5.5-9.6
			c2.3-2.8,5.1-5,8.6-6.7c1.7-0.8,3.7-1.4,5.9-1.9l-23.1-0.6h-14.6c-7,0-11.5,5.7-11.7,12.7l-0.9,18.2c-3.5-1.6-6.5-2.9-9.2-3.6
			c-2.6-0.8-6-1.2-10.2-1.2c-4.6,0-8.9,0.9-13.1,2.7c-4.1,1.8-7.7,4.2-10.6,7.3c-3.2,3.4-5.8,7.3-7.7,11.8c-1.9,4.5-3,9.9-3.1,16.1
			c-0.3,11.2,2.1,20.1,7.1,26.8c5.1,6.7,12.1,10,21.2,10c2.7,0,5-0.2,6.9-0.6c1.9-0.4,3.9-1,5.9-1.9c1.6-0.7,3.4-1.7,5.5-3
			c2.1-1.3,3.9-2.6,5.6-3.8l-0.1,2.5c-0.1,4,3,7.2,7,7.2h35c-6.7-1.3-11.7-7.3-11.5-14.4l0.2-8.7h51.5c1.7,0,3.1-0.2,4-0.7
			c1-0.5,1.7-1.1,2.3-1.9c0.9-1.3,1.5-4.1,1.5-5.9C465.6,77.8,465.1,74.7,464,73.3z M375.8,89.7c-2.2,1.3-4.6,2.3-7.1,3.1
			c-2.6,0.8-5.2,1.1-7.7,1.1c-6.2,0-10.6-1.6-13.3-4.7c-2.7-3.1-4.5-8-4.3-15c0.2-6.6,2.7-11.9,6.3-15.6c3.6-3.7,8.8-5.6,15.7-5.6
			c1.7,0,3.6,0.2,5.9,0.5c2.3,0.4,4.1,0.8,5.5,1.4L375.8,89.7z"/>
		<path id="XMLID_272_" d="M315.6,38.5c-6.1,0-11.5,4.3-12.9,10.3l-9.4,42.1L284.8,62c-1.4-6.2-6.3-10.5-11.8-10.5
			c-5.5,0-10.5,4.2-12.4,10.3l-10.9,29.1l-7.2-42.1c-1-6-6.1-10.3-12.3-10.3h-9.2l13.7,66.3c0.8,3.9,4.3,6.8,8.3,6.8h4.9
			c6.3,0,11.2-4.8,13.1-10.8l7.8-23c1-3.6,5.3-3.6,6.1,0l6.5,22.3c1.7,6.4,5.6,11.5,12.2,11.5h4.7c3.9,0,7.2-2.6,8.2-6.3l17.6-66.8
			H315.6z"/>
		<path id="XMLID_273_" d="M599,95.3c-3.2-4.5-5.7-9.6-7.4-15.4c-1.7-5.8-2.5-12-2.3-18.7c0.2-7.4,1.6-14.3,4.2-20.7
			c2.6-6.4,6-11.9,10.3-16.6c3.8-4.2,8.3-7.5,13.4-9.8c4.2-1.9,8.9-3.1,14.2-3.4l-71.2,0.2c3,0.4,5.7,1.2,7.9,2.3
			c3.3,1.8,6.1,4.1,8.3,7c2,2.6,3.5,5.6,4.6,9.1c1.1,3.4,1.6,7.1,1.5,10.9c-0.1,4.1-0.8,8-2.1,11.6c-1.3,3.7-3.4,6.8-6.4,9.4
			c2.7,2,4.7,4.5,5.9,7.6c1.2,3.1,1.7,7.5,1.5,13.3l-0.6,20.2c-0.1,2.2-0.1,4-0.1,5.4c0,1.3,1.6,3.9,2.7,3.9h43.3
			c-5.2-0.5-9.9-1.9-14-4.2C607.3,104.4,602.7,100.4,599,95.3z"/>
		<path id="XMLID_274_" d="M553.7,51.8c1-0.6,1.8-1.4,2.5-2.4c1.1-1.6,1.7-3.3,1.7-5.2c0.1-2.3-0.5-4.2-1.7-5.7
			c-1.3-1.8-3.2-2.7-5.9-2.7h-27.8l-0.1,2.2l-0.4,14.7h27.8C551.5,52.7,552.7,52.4,553.7,51.8z"/>
		<path id="XMLID_275_" d="M556.9,105.1l0.6-20.2c0.1-3.2-0.5-5.5-1.9-6.9c-1.4-1.4-3.7-2.1-6.9-2.1h-27.2l-1,35.7h39.2
			C558,111.5,556.8,107.3,556.9,105.1z"/>
		<path id="XMLID_286_" d="M486.4,34.7h-50.8c-1.4,0-2.5,0.2-3.3,0.5c-0.8,0.4-1.4,0.8-1.9,1.4c-1.2,1.4-1.8,4.4-1.9,6.5
			c-0.1,2.2,0.5,5.3,1.9,6.7c0.5,0.5,1.1,0.9,1.7,1.1c0.7,0.2,1.7,0.4,3,0.4h27.6c4.7,0,8.6,0.8,11.8,2.5c3.2,1.6,5.9,3.9,8,6.7
			c2.1,2.8,3.8,6,5,9.6c1.2,3.6,1.7,7.4,1.6,11.4c-0.1,3.7-0.8,7.2-2,10.6c-1.2,3.4-2.8,6.4-4.7,9.1c-2.4,3.2-5.3,5.7-8.8,7.6
			c-2.4,1.3-5.2,2.2-8.3,2.6h31.7l2.7-94.8c0.1-3.1,1.2-5,3.2-5.9l-15.7,0L486.4,34.7z"/>
	</g>
</g>
</svg>
