<?xml version="1.0" encoding="utf-8"?>
<!-- Generator: Adobe Illustrator 19.0.0, SVG Export Plug-In . SVG Version: 6.00 Build 0)  -->
<svg version="1.1" id="Layer_1" xmlns="http://www.w3.org/2000/svg" xmlns:xlink="http://www.w3.org/1999/xlink" x="0px" y="0px"
	 viewBox="0 0 500 500" style="enable-background:new 0 0 500 500;" xml:space="preserve">
<g id="XMLID_334_">
	<path id="XMLID_33_" d="M149.8,450c26.4,0,85.9,0,85.9,0c-7.9-0.8-40.3-2.1-47.5-3.9c-11.7-2.9-22.6-7.1-32.6-12.5
		c-21.4-11.7-39.4-27.6-54.1-47.8c-12.8-17.8-22.6-38.2-29.4-61.1c-6.8-22.9-9.8-47.7-9.1-74.2c0.8-29.3,6.3-56.6,16.4-81.9
		c10.1-25.3,23.7-47.3,40.8-65.9c15.1-16.6,32.7-29.6,52.9-38.9c10.5-4.8,21.9-8.4,34.2-10.7c7.1-1.3,39.3-2.2,46.9-2.7
		c0,0-55.1,0-104.5,0C67,50.4,7.2,152.2,7.2,250.8S67,450,149.8,450z"/>
	<path id="XMLID_29_" d="M446.4,305L446.4,305c-4.5,0-8.7-3.8-9.3-8.3l-11.7-93.6c-0.6-4.6,2.7-8.3,7.2-8.3h0c4.5,0,8.7,3.8,9.3,8.3
		l11.7,93.6C454.2,301.3,450.9,305,446.4,305z"/>
	<path id="XMLID_28_" d="M469.2,305L469.2,305c-4.5,0-8.7-3.8-9.3-8.3l-11.7-93.6c-0.6-4.6,2.7-8.3,7.2-8.3l0,0
		c4.5,0,8.7,3.8,9.3,8.3l11.7,93.6C477,301.3,473.7,305,469.2,305z"/>
	<path id="XMLID_18_" d="M488,286.5L488,286.5c-3,0-5.8-2.5-6.2-5.5l-7.8-62.1c-0.4-3,1.8-5.5,4.8-5.5h0c3,0,5.8,2.5,6.2,5.5
		l7.8,62.1C493.1,284,491,286.5,488,286.5z"/>
	<g id="XMLID_30_">
		<path id="XMLID_31_" d="M327,236.7h-17.2l0,1.4l-0.3,9.1h17.2c1,0,1.8-0.2,2.4-0.6c0.6-0.4,1.1-0.9,1.6-1.5c0.7-1,1-2.1,1.1-3.2
			c0-1.4-0.3-2.6-1-3.5C329.9,237.3,328.6,236.7,327,236.7z"/>
		<path id="XMLID_100_" d="M432.5,296.7l-11.7-93.6c-0.2-1.9-2-3.6-4.2-5c0.4-41.3,0.8-77.5,0.8-96.1c0.2-28.7-8.4-52-26.5-52l-20,0
			l-41.5,0c4.5,0.3,33.6,1.3,37.6,2.7c19.2,6.9,32.6,25.4,32,47.2l-1.5,101.7c-38.4,0-53-50.6-117.8-50.6h-4.8
			c-14.9,0-32.4,2.4-42.3,7.1s-18.5,11.1-25.8,19c-7.7,8.7-13.9,19-18.6,30.9c-4.7,11.9-7.4,29.6-7.8,43c-0.3,12.3,1,28.9,4.2,39.8
			c3.2,10.9,8,20.5,14.3,28.8c6.9,9.5,15.6,17,26.1,22.6c10.6,5.5,28.7,8.3,44.3,8.3h6.3c70.9,0,80.2-50.6,116.3-50.6l-1.2,94.2
			c-0.7,24.9-17.3,46-39.7,53.8c-2.6,0.9-30,1.6-32.8,2.1h49.4l16.9,0c16.5,0,29.9-24.5,30.1-55v0c0-20.2,0.4-58.2,0.8-100.7
			l0.4,2.4c0.6,4.6,4.8,8.3,9.3,8.3S433.1,301.3,432.5,296.7z M287.7,271.6c-0.7,2.1-1.7,4-2.9,5.7c-1.5,2-3.3,3.6-5.4,4.7
			c-1.5,0.8-3.2,1.3-5.1,1.6h-29.6c-4.2-0.8-7.2-4.5-7.1-8.9l0.2-5.4h31.9c1.1,0,1.9-0.1,2.5-0.4c0.6-0.3,1.1-0.7,1.4-1.2
			c0.6-0.8,0.9-2.6,0.9-3.7c0-1.4-0.3-3.3-1-4.1c-0.3-0.5-0.8-0.8-1.3-1.1c-0.5-0.2-1.3-0.3-2.3-0.3h-15.4c-3.5,0-6.2-0.5-8.3-1.5
			c-2.1-1-3.8-2.4-5.1-4.1c-1.3-1.7-2.3-3.7-3-5.9c-0.7-2.2-1-4.6-0.9-7.2c0.1-2.5,0.5-4.9,1.4-7.1c0.8-2.2,2-4.2,3.4-5.9
			c1.4-1.7,3.2-3.1,5.3-4.1c1.1-0.5,2.3-0.9,3.7-1.1l6.9-0.1l30,0l-0.4,14.7h-31.4c-0.9,0-1.5,0.1-2,0.3c-0.5,0.2-0.9,0.5-1.2,0.9
			c-0.7,0.9-1.1,2.7-1.2,4c0,1.4,0.3,3.3,1.2,4.1c0.3,0.3,0.7,0.5,1.1,0.7c0.4,0.2,1,0.2,1.9,0.2h17.1c2.9,0,5.3,0.5,7.3,1.5
			c2,1,3.6,2.4,4.9,4.1c1.3,1.7,2.3,3.7,3.1,5.9c0.7,2.2,1,4.6,1,7.1C288.9,267.3,288.5,269.5,287.7,271.6z M332.7,283.6
			c-1,0-1.7-2.6-1.7-4l0.4-12.5c0.1-2-0.3-3.4-1.2-4.3c-0.8-0.9-2.3-1.3-4.3-1.3H309l-0.6,22.1h-14.6l1.7-58.7
			c0.1-1.9,0.7-3.1,2-3.6h36.1c1.7,0.3,3.1,0.7,4.4,1.4c2,1.1,3.8,2.5,5.1,4.3c1.2,1.6,2.2,3.5,2.8,5.6c0.7,2.1,1,4.4,0.9,6.7
			c-0.1,2.5-0.5,4.9-1.3,7.2c-0.8,2.3-2.1,4.2-4,5.8c1.7,1.2,2.9,2.8,3.6,4.7c0.7,1.9,1,4.7,0.9,8.3l-0.4,12.5
			c0,1.4-0.1,2.5-0.1,3.3c0,0.8,1,2.4,1.7,2.4H332.7z M403.4,244.8c-6,0-8.3-7.9-18.4-7.9h-0.7c-2.3,0-5.1,0.4-6.6,1.1
			c-1.5,0.7-2.9,1.7-4,3c-1.2,1.4-2.2,3-2.9,4.8c-0.7,1.9-1.2,4.6-1.2,6.7c-0.1,1.9,0.1,4.5,0.7,6.2c0.5,1.7,1.3,3.2,2.2,4.5
			c1.1,1.5,2.4,2.7,4.1,3.5c1.6,0.9,4.5,1.3,6.9,1.3h1c11.1,0,12.5-7.9,18.2-7.9l-0.2,14.7c-0.1,4.3-3.3,7.9-7.4,8.7h-20.7
			c-3.2-0.3-6.1-1.2-8.6-2.6c-3.3-1.8-6.2-4.3-8.5-7.5c-2-2.8-3.5-6-4.6-9.6c-1.1-3.6-1.5-7.5-1.4-11.6c0.1-4.6,1-8.8,2.6-12.8
			c1.6-4,3.7-7.4,6.4-10.3c2.4-2.6,5.1-4.6,8.3-6.1c2.1-1,4.4-1.6,7-1.9H398c3.3,0.9,5.7,3.9,5.6,7.6L403.4,244.8z"/>
	</g>
</g>
<path id="XMLID_57_" d="M285.3,476.7"/>
</svg>
