<?xml version="1.0" standalone="no"?>
<!DOCTYPE svg PUBLIC "-//W3C//DTD SVG 20010904//EN"
 "http://www.w3.org/TR/2001/REC-SVG-20010904/DTD/svg10.dtd">
<svg version="1.0" xmlns="http://www.w3.org/2000/svg"
 width="1389.000000pt" height="1389.000000pt" viewBox="0 0 1389.000000 1389.000000"
 preserveAspectRatio="xMidYMid meet">
<metadata>
Created by potrace 1.11, written by Peter Selinger 2001-2013
</metadata>
<g transform="translate(0.000000,1389.000000) scale(0.100000,-0.100000)"
fill="#000000" stroke="none">
<path d="M9323 12538 c-2 -5 15 -8 39 -9 24 0 72 -2 108 -4 36 -2 120 -6 187
-9 125 -6 270 -15 333 -21 19 -2 67 -7 105 -10 98 -9 155 -27 265 -82 262
-132 470 -335 598 -582 73 -142 123 -287 138 -404 3 -23 9 -58 13 -77 8 -37 7
-241 -4 -985 -4 -258 -8 -580 -10 -715 -5 -322 -17 -1142 -19 -1250 l-1 -85
-65 -1 c-74 0 -214 25 -310 57 -151 49 -326 145 -525 288 -82 59 -393 297
-405 311 -13 15 -277 205 -370 267 -88 59 -342 206 -360 209 -3 0 -40 17 -83
37 -43 21 -81 37 -84 37 -3 0 -19 6 -36 14 -151 68 -496 155 -682 171 -22 2
-71 7 -110 11 -171 19 -739 7 -909 -20 -17 -3 -53 -8 -81 -12 -27 -3 -59 -8
-70 -10 -10 -2 -37 -6 -60 -9 -22 -4 -58 -11 -80 -17 -22 -5 -51 -12 -65 -14
-14 -3 -76 -20 -138 -40 -346 -107 -738 -386 -992 -705 -259 -324 -464 -750
-546 -1130 -7 -36 -32 -160 -38 -194 -3 -16 -8 -41 -11 -55 -5 -25 -12 -77
-19 -135 -2 -16 -7 -57 -11 -90 -27 -221 -34 -473 -21 -737 4 -68 8 -135 10
-148 3 -14 7 -54 11 -90 7 -76 11 -102 31 -230 61 -379 229 -767 471 -1091
230 -307 560 -565 876 -683 80 -30 280 -84 372 -101 61 -11 151 -24 200 -30
28 -3 64 -7 80 -10 101 -15 226 -19 510 -20 332 0 484 8 615 31 14 2 43 7 65
10 152 21 429 98 600 166 211 85 491 246 680 393 64 49 187 148 215 172 373
319 529 435 695 520 142 72 315 120 434 118 l46 0 -1 -175 c-2 -254 -20 -1635
-29 -2220 -3 -168 -7 -324 -9 -348 -31 -312 -164 -631 -366 -877 -227 -276
-596 -510 -835 -529 -122 -10 -216 -15 -360 -22 -77 -4 -160 -8 -185 -9 -25
-1 -75 -3 -112 -4 -38 0 -68 -4 -68 -9 0 -4 413 -7 918 -6 813 0 923 2 969 17
189 58 344 204 477 447 99 184 196 508 221 740 3 30 8 75 11 100 6 50 9 276
19 1455 4 446 8 950 10 1120 2 171 4 339 4 374 1 68 6 77 14 25 24 -153 206
-261 339 -202 104 47 137 120 117 267 -5 42 -12 92 -14 111 -7 56 -15 122 -20
160 -2 19 -7 59 -11 89 -3 30 -7 61 -9 70 -1 9 -6 45 -10 81 -4 36 -8 72 -10
80 -3 15 -15 120 -20 170 -1 14 -5 43 -8 65 -4 22 -9 59 -12 83 -6 47 -12 101
-20 165 -3 23 -8 60 -11 82 -2 22 -7 58 -10 80 -2 22 -7 58 -10 80 -2 22 -7
56 -9 75 -3 19 -12 94 -20 165 -9 72 -18 141 -20 155 -2 14 -6 50 -10 80 -4
30 -8 66 -10 80 -2 14 -7 50 -10 80 -3 30 -8 66 -10 80 -2 14 -7 50 -10 80 -3
30 -8 66 -10 80 -4 28 -13 102 -21 170 -3 25 -7 56 -9 70 -2 14 -7 49 -10 79
-4 30 -8 63 -10 74 -6 27 -49 81 -85 107 l-31 22 6 526 c15 1317 19 2338 11
2412 -2 19 -7 69 -10 110 -3 41 -8 86 -11 99 -2 12 -6 42 -9 65 -9 78 -48 240
-82 344 -102 313 -273 511 -494 573 -35 10 -236 13 -868 13 -453 1 -826 -2
-829 -6z m-1329 -4992 c-3 -110 -8 -203 -10 -206 -3 -3 -211 -5 -463 -5 -516
0 -496 3 -524 -77 -15 -47 -14 -116 3 -158 22 -52 31 -54 365 -55 285 -2 315
-4 367 -23 32 -11 72 -30 90 -43 173 -118 252 -379 186 -606 -51 -171 -151
-288 -298 -348 -41 -17 -82 -18 -480 -19 -296 -1 -445 2 -468 10 -77 26 -140
96 -158 174 -8 37 -8 200 0 208 3 2 212 5 464 5 500 0 517 2 542 55 21 45 24
142 7 184 -26 63 -39 65 -342 66 -293 0 -360 7 -444 49 -141 68 -240 248 -243
439 -2 98 9 156 43 243 61 159 188 276 322 300 23 4 268 7 544 7 l503 0 -6
-200z m1397 167 c221 -109 318 -388 227 -658 -20 -61 -43 -100 -86 -147 l-24
-26 32 -34 c36 -36 75 -114 86 -168 3 -19 5 -111 4 -205 -6 -443 -6 -432 12
-452 17 -18 12 -18 -187 -18 -112 0 -207 3 -210 7 -22 22 -32 90 -29 197 9
347 9 352 -49 395 -26 19 -41 20 -299 20 l-273 1 -1 -65 c-11 -403 -16 -546
-20 -550 -3 -2 -94 -5 -202 -5 l-197 0 1 80 c2 106 14 580 19 728 3 64 7 208
10 320 3 111 8 276 10 366 5 169 14 224 43 240 8 5 247 8 541 7 l526 -1 66
-32z m1737 15 c43 -20 91 -78 107 -128 7 -22 7 -145 2 -430 l-2 -75 -30 3
c-32 3 -119 52 -157 87 -46 42 -161 104 -217 116 -327 70 -544 -110 -543 -452
1 -131 29 -217 99 -298 42 -50 89 -79 156 -97 52 -14 200 -20 247 -10 14 3 39
9 55 12 50 11 118 50 191 110 66 54 134 93 162 94 11 0 13 -43 9 -227 -2 -126
-6 -235 -9 -243 -22 -67 -65 -121 -126 -156 l-47 -28 -305 -1 c-207 -1 -324 3
-366 12 -184 37 -341 151 -446 325 -40 66 -94 194 -103 248 -3 18 -7 36 -9 39
-8 13 -19 120 -21 195 -7 420 226 795 555 895 94 28 78 27 430 28 305 1 328 0
368 -19z"/>
<path d="M8619 7316 c-4 -4 -12 -241 -10 -283 1 -9 68 -12 260 -12 251 0 261
1 293 22 93 63 89 222 -6 262 -27 11 -90 14 -285 14 -138 -1 -251 -2 -252 -3z"/>
<path d="M4017 12534 c-1 -1 -42 -5 -92 -8 -434 -31 -883 -178 -1292 -423
-114 -68 -279 -177 -293 -193 -3 -3 -23 -19 -45 -35 -38 -28 -134 -104 -145
-115 -3 -3 -43 -39 -89 -80 -157 -139 -340 -330 -466 -484 -22 -28 -52 -63
-66 -80 -14 -17 -60 -78 -103 -136 -43 -58 -84 -113 -92 -123 -8 -9 -14 -19
-14 -21 0 -3 -21 -35 -47 -73 -242 -353 -508 -879 -670 -1323 -117 -321 -234
-716 -282 -953 -5 -23 -18 -88 -30 -144 -19 -97 -53 -290 -66 -378 -3 -22 -10
-67 -15 -100 -11 -71 -18 -138 -25 -220 -3 -33 -8 -80 -10 -105 -6 -55 -15
-179 -20 -280 -5 -100 -6 -636 -1 -680 2 -19 7 -89 11 -154 4 -66 8 -127 10
-135 1 -9 6 -52 10 -96 4 -44 9 -88 11 -99 2 -10 6 -42 8 -70 3 -28 7 -60 10
-71 5 -26 17 -112 22 -150 2 -16 6 -41 9 -55 4 -23 16 -84 30 -165 14 -82 53
-257 91 -410 160 -640 406 -1245 725 -1787 64 -108 260 -408 303 -463 225
-289 311 -389 471 -549 288 -289 576 -506 905 -683 194 -104 530 -232 703
-268 10 -2 26 -6 35 -9 9 -3 35 -8 57 -12 22 -3 58 -9 80 -14 22 -5 63 -12 90
-15 28 -4 61 -8 75 -10 14 -2 59 -7 100 -11 103 -10 2541 -11 2546 -2 3 5 -23
8 -58 9 -35 0 -71 2 -80 4 -10 2 -80 6 -155 10 -76 4 -149 8 -163 10 -14 2
-79 7 -145 10 -66 4 -136 8 -155 10 -19 2 -73 6 -120 10 -281 20 -423 49 -685
138 -139 48 -215 76 -282 107 -24 11 -45 20 -49 20 -10 0 -279 137 -322 164
-23 14 -44 26 -47 26 -8 0 -226 139 -322 206 -376 262 -760 633 -1023 989 -25
33 -47 62 -50 65 -13 11 -191 282 -247 375 -193 321 -355 670 -490 1053 -61
177 -110 339 -160 532 -34 133 -39 151 -48 200 -3 14 -7 36 -10 50 -7 29 -33
169 -41 219 -3 18 -8 43 -10 55 -2 11 -7 41 -10 66 -3 25 -7 52 -9 60 -2 8 -7
42 -10 75 -3 33 -8 71 -10 85 -3 14 -7 54 -10 90 -4 36 -8 79 -10 96 -28 231
-27 999 1 1264 2 25 6 70 9 100 6 66 14 146 20 180 2 14 7 50 10 80 4 30 9 64
11 75 2 11 7 40 10 65 3 25 7 52 9 60 3 8 7 33 11 55 3 22 9 58 14 80 5 22 12
56 15 75 28 164 132 554 207 775 43 126 170 455 208 540 215 473 430 842 701
1205 230 309 521 623 774 835 32 28 75 64 94 81 181 155 554 395 828 533 176
88 504 220 610 246 10 3 59 16 108 30 50 14 97 28 105 30 8 2 47 11 85 20 39
9 81 19 95 21 14 3 32 7 40 9 8 3 33 7 55 10 22 3 54 7 70 10 33 5 142 14 250
20 151 8 294 16 390 20 292 12 433 18 462 19 18 0 30 3 27 6 -5 4 -2932 8
-2937 4z"/>
<path d="M6996 12528 c3 -5 10 -6 15 -3 13 9 11 12 -6 12 -8 0 -12 -4 -9 -9z"/>
<path d="M9268 12533 c7 -3 16 -2 19 1 4 3 -2 6 -13 5 -11 0 -14 -3 -6 -6z"/>
<path d="M11983 8479 c-58 -22 -109 -77 -124 -133 -12 -44 -10 -73 20 -306 11
-85 23 -182 27 -214 3 -33 7 -67 9 -76 2 -8 6 -43 10 -75 4 -33 8 -71 10 -85
5 -29 13 -95 20 -160 3 -25 7 -58 10 -75 2 -16 7 -52 10 -80 3 -27 7 -61 10
-75 2 -14 7 -50 10 -80 3 -30 7 -66 9 -80 3 -14 7 -52 11 -85 3 -33 8 -67 10
-75 2 -8 6 -46 10 -83 3 -37 8 -76 10 -85 1 -9 6 -44 9 -77 4 -33 8 -71 11
-85 2 -14 7 -47 10 -75 3 -27 10 -79 15 -114 5 -35 8 -67 8 -70 -1 -3 1 -24 5
-46 3 -22 9 -62 12 -90 3 -27 8 -61 10 -75 2 -14 6 -52 10 -85 3 -33 8 -67 10
-75 2 -8 6 -44 10 -80 3 -36 7 -75 9 -85 2 -11 7 -46 10 -77 9 -79 25 -121 66
-173 87 -111 254 -132 347 -42 54 51 69 129 49 252 -2 17 -10 73 -16 125 -6
52 -13 109 -15 125 -6 38 -24 186 -31 245 -4 42 -6 58 -19 150 -2 19 -12 91
-20 160 -9 69 -18 141 -20 160 -2 19 -11 91 -20 160 -8 69 -17 139 -20 155 -2
17 -7 55 -10 85 -3 30 -7 66 -10 80 -2 14 -7 50 -10 80 -9 79 -13 115 -25 200
-5 41 -12 98 -15 126 -3 28 -7 59 -9 70 -2 10 -7 46 -10 79 -12 97 -25 203
-31 245 -2 14 -11 88 -20 164 -9 77 -23 159 -30 182 -40 134 -199 219 -322
173z"/>
<path d="M12660 8490 c-70 -13 -121 -52 -155 -120 -15 -28 -17 -49 -11 -120 3
-47 8 -94 10 -105 2 -11 7 -47 10 -80 4 -33 9 -71 11 -85 3 -23 8 -62 21 -170
3 -25 7 -56 9 -70 2 -14 7 -52 10 -85 4 -33 8 -71 10 -85 6 -39 24 -180 30
-235 3 -27 8 -61 10 -75 4 -22 13 -100 20 -170 2 -14 6 -45 9 -70 8 -55 14
-102 21 -157 3 -24 7 -62 10 -85 3 -24 8 -59 10 -78 2 -19 9 -71 14 -115 6
-44 13 -102 16 -130 3 -27 7 -59 9 -70 2 -11 7 -49 11 -85 4 -36 9 -72 10 -80
2 -8 6 -44 10 -80 4 -36 8 -72 10 -80 1 -8 6 -42 9 -75 4 -33 9 -71 11 -85 3
-14 7 -50 10 -80 3 -30 7 -64 9 -75 6 -31 18 -134 16 -140 -3 -13 55 -102 84
-129 67 -62 166 -86 246 -59 109 36 146 119 127 288 -4 33 -9 69 -11 80 -2 11
-7 49 -11 85 -3 36 -8 72 -10 80 -2 8 -7 44 -10 80 -4 36 -9 72 -10 81 -4 19
-13 90 -30 244 -4 33 -9 67 -10 75 -2 8 -6 44 -10 80 -4 36 -8 72 -10 80 -3
14 -11 79 -21 163 -6 52 -13 111 -19 155 -3 20 -7 57 -10 82 -3 25 -7 59 -9
75 -2 17 -7 53 -11 80 -3 28 -8 64 -10 82 -3 17 -9 73 -15 125 -6 51 -12 104
-15 118 -2 14 -7 52 -10 84 -3 32 -7 62 -9 65 -2 3 -6 38 -10 76 -4 39 -8 81
-11 95 -2 14 -6 48 -10 75 -3 28 -8 64 -10 80 -3 17 -7 50 -10 75 -2 25 -7 65
-10 90 -3 25 -8 61 -10 80 -13 99 -20 124 -49 171 -17 29 -50 65 -73 81 -48
35 -133 57 -183 48z"/>
<path d="M13284 7956 c-54 -31 -76 -78 -69 -146 6 -59 16 -134 21 -163 2 -10
6 -48 9 -85 3 -37 8 -74 10 -82 4 -14 11 -68 20 -150 2 -19 6 -53 9 -75 3 -22
8 -60 11 -85 7 -69 17 -143 21 -163 2 -10 6 -48 9 -85 3 -37 8 -74 10 -82 2
-8 7 -42 10 -75 4 -33 8 -71 10 -85 5 -35 14 -103 19 -147 11 -90 19 -149 22
-167 2 -10 6 -51 10 -90 3 -39 8 -73 9 -76 2 -3 6 -37 10 -75 12 -120 73 -193
167 -200 55 -4 112 25 134 67 16 30 16 98 0 208 -2 14 -7 52 -11 85 -3 33 -8
71 -10 85 -11 74 -23 171 -30 245 -3 28 -7 59 -9 70 -2 12 -7 48 -11 80 -4 33
-8 71 -10 85 -2 14 -7 50 -10 80 -3 30 -8 62 -10 70 -2 8 -7 49 -10 90 -4 41
-9 84 -11 95 -2 11 -6 43 -9 70 -3 28 -7 59 -9 70 -3 19 -11 75 -22 168 -2 20
-6 55 -9 77 -3 22 -7 58 -10 80 -3 22 -7 57 -10 78 -3 20 -7 54 -9 75 -16 128
-143 209 -242 153z"/>
<path d="M6490 1350 c0 -5 5 -10 11 -10 5 0 7 5 4 10 -3 6 -8 10 -11 10 -2 0
-4 -4 -4 -10z"/>
<path d="M8916 1352 c-3 -5 1 -9 9 -9 8 0 15 4 15 9 0 4 -4 8 -9 8 -6 0 -12
-4 -15 -8z"/>
</g>
</svg>
